<svg width="538" height="85" viewBox="0 0 538 85" fill="none" xmlns="http://www.w3.org/2000/svg">
<path fill-rule="evenodd" clip-rule="evenodd" d="M448.437 83.6615L448.517 84.1551C449.873 83.9362 451.216 83.7149 452.547 83.4912L452.464 82.9981L452.381 82.505C451.052 82.7284 449.711 82.9494 448.357 83.1679L448.437 83.6615ZM460.426 81.6027L460.516 82.0946C461.862 81.8488 463.193 81.6005 464.508 81.3497L464.415 80.8585L464.321 80.3674C463.008 80.6177 461.68 80.8656 460.337 81.1108L460.426 81.6027ZM472.357 79.2759L472.459 79.7654C473.785 79.4892 475.093 79.2104 476.384 78.9288L476.277 78.4403L476.171 77.9518C474.883 78.2326 473.578 78.5109 472.255 78.7864L472.357 79.2759ZM484.163 76.634L484.28 77.1201C485.627 76.796 486.951 76.4687 488.253 76.1384L488.13 75.6537L488.007 75.1691C486.71 75.4984 485.389 75.8247 484.046 76.1479L484.163 76.634ZM495.936 73.558L496.073 74.039C497.396 73.6628 498.69 73.2832 499.955 72.9001L499.81 72.4215L499.665 71.943C498.406 72.3244 497.117 72.7024 495.799 73.0771L495.936 73.558ZM507.511 69.9227L507.675 70.3948C508.975 69.9416 510.235 69.4842 511.455 69.0228L511.278 68.5551L511.101 68.0874C509.89 68.5456 508.638 69.0001 507.346 69.4506L507.511 69.9227ZM518.751 65.4473L518.96 65.9014C520.237 65.3136 521.451 64.7202 522.6 64.1214L522.369 63.6779L522.138 63.2345C521.004 63.8252 519.805 64.4115 518.542 64.9931L518.751 65.4473ZM529.198 59.5017L529.494 59.9044C530.661 59.0454 531.698 58.1773 532.602 57.3009L532.254 56.9419L531.906 56.5829C531.039 57.4234 530.037 58.2626 528.901 59.0991L529.198 59.5017ZM537.06 48.5471C537.06 49.2196 536.982 49.889 536.829 50.5548L536.342 50.4426L535.854 50.3303C535.991 49.7362 536.06 49.1422 536.06 48.5471C536.06 47.952 535.991 47.3579 535.854 46.7638L536.342 46.6516L536.829 46.5393C536.982 47.2052 537.06 47.8745 537.06 48.5471ZM532.254 40.1522L532.602 39.7932C531.698 38.9168 530.661 38.0488 529.494 37.1898L529.198 37.5924L528.901 37.995C530.037 38.8315 531.039 39.6708 531.906 40.5112L532.254 40.1522ZM522.369 33.4162L522.6 32.9728C521.451 32.374 520.237 31.7806 518.96 31.1927L518.751 31.6469L518.542 32.1011C519.805 32.6827 521.004 33.269 522.138 33.8596L522.369 33.4162ZM511.278 28.539L511.455 28.0714C510.235 27.6099 508.975 27.1526 507.675 26.6994L507.511 27.1715L507.346 27.6436C508.638 28.0941 509.89 28.5485 511.101 29.0067L511.278 28.539ZM499.81 24.6726L499.955 24.1941C498.69 23.811 497.396 23.4314 496.073 23.0552L495.936 23.5361L495.799 24.0171C497.117 24.3917 498.406 24.7698 499.665 25.1512L499.81 24.6726ZM484.28 19.9741C485.627 20.2982 486.951 20.6255 488.253 20.9558L488.13 21.4405L488.007 21.9251C486.71 21.5958 485.389 21.2695 484.046 20.9463L484.163 20.4602L484.28 19.9741ZM476.277 18.6539L476.384 18.1654C475.093 17.8838 473.785 17.6049 472.459 17.3288L472.357 17.8183L472.255 18.3078C473.578 18.5833 474.883 18.8615 476.171 19.1424L476.277 18.6539ZM464.415 16.2356L464.508 15.7445C463.193 15.4937 461.862 15.2453 460.516 14.9996L460.426 15.4915L460.337 15.9833C461.68 16.2286 463.008 16.4765 464.321 16.7268L464.415 16.2356ZM452.464 14.0961L452.547 13.603C451.216 13.3793 449.873 13.1579 448.517 12.9391L448.437 13.4327L448.357 13.9263C449.711 14.1448 451.052 14.3658 452.381 14.5891L452.464 14.0961ZM440.443 12.1923L440.517 11.6978C439.198 11.5012 437.869 11.3068 436.529 11.1147L436.458 11.6096L436.387 12.1045C437.725 12.2964 439.053 12.4905 440.369 12.6869L440.443 12.1923ZM428.413 10.4998L428.479 10.0042C427.159 9.82917 425.831 9.6563 424.493 9.48556L424.43 9.98154L424.366 10.4775C425.702 10.648 427.029 10.8207 428.347 10.9955L428.413 10.4998ZM416.378 8.99302L416.437 8.49646C415.108 8.33956 413.77 8.18471 412.425 8.03194L412.369 8.52875L412.312 9.02556C413.656 9.17816 414.992 9.33284 416.32 9.48957L416.378 8.99302ZM404.314 7.6494L404.366 7.15213C403.03 7.01201 401.687 6.87389 400.336 6.73781L400.286 7.23529L400.236 7.73277C401.585 7.86872 402.927 8.00669 404.262 8.14667L404.314 7.6494ZM392.228 6.45551L392.274 5.95765C390.934 5.83321 389.587 5.71073 388.233 5.59024L388.189 6.08827L388.145 6.5863C389.497 6.70668 390.843 6.82904 392.182 6.95337L392.228 6.45551ZM380.127 5.40036L380.167 4.90202C378.824 4.79231 377.475 4.68454 376.12 4.5787L376.081 5.07718L376.042 5.57566C377.396 5.68141 378.744 5.78909 380.086 5.8987L380.127 5.40036ZM368.013 4.47498L368.049 3.97624C366.704 3.88048 365.354 3.7866 363.999 3.69462L363.965 4.19348L363.931 4.69233C365.285 4.78423 366.634 4.87803 367.978 4.97372L368.013 4.47498ZM355.891 3.67203L355.921 3.17297C354.576 3.09045 353.226 3.00979 351.871 2.931L351.842 3.43016L351.813 3.92932C353.167 4.00804 354.516 4.08864 355.86 4.17109L355.891 3.67203ZM343.76 2.98549L343.786 2.48616C342.441 2.41631 341.091 2.34828 339.737 2.28211L339.713 2.78152L339.688 3.28092C341.041 3.34704 342.39 3.41501 343.734 3.48481L343.76 2.98549ZM331.623 2.41042L331.644 1.91088C330.299 1.8532 328.951 1.79732 327.598 1.74328L327.578 2.24288L327.558 2.74248C328.91 2.79649 330.257 2.85232 331.601 2.90996L331.623 2.41042ZM319.479 1.94281L319.496 1.4431C318.152 1.39717 316.805 1.35304 315.454 1.31071L315.438 1.81047L315.422 2.31022C316.772 2.35252 318.119 2.39662 319.462 2.44251L319.479 1.94281ZM307.331 1.57938L307.344 1.07955C306 1.04503 304.654 1.0123 303.305 0.981352L303.293 1.48122L303.282 1.98109C304.63 2.01201 305.976 2.04472 307.318 2.07922L307.331 1.57938ZM295.178 1.31753L295.187 0.817601C293.844 0.794214 292.499 0.772595 291.152 0.752758L291.144 1.2527L291.137 1.75265C292.484 1.77247 293.828 1.79408 295.169 1.81745L295.178 1.31753ZM283.027 1.15521L283.031 0.655227C281.688 0.642721 280.343 0.631981 278.995 0.623019L278.992 1.12301L278.988 1.623C280.336 1.63195 281.68 1.64269 283.022 1.65518L283.027 1.15521ZM270.887 1.09071L270.888 0.590708C270.21 0.589807 269.531 0.589355 268.852 0.589355C268.172 0.589355 267.494 0.589807 266.816 0.590708L266.816 1.09071L266.817 1.59071C267.495 1.58981 268.173 1.58936 268.852 1.58936C269.53 1.58936 270.209 1.58981 270.886 1.59071L270.887 1.09071ZM258.711 1.12301L258.708 0.62302C257.36 0.631981 256.015 0.642721 254.672 0.655228L254.677 1.15521L254.681 1.65518C256.023 1.64269 257.368 1.63195 258.715 1.623L258.711 1.12301ZM246.559 1.2527L246.552 0.752759C245.204 0.772595 243.859 0.794214 242.517 0.817602L242.525 1.31753L242.534 1.81745C243.875 1.79408 245.219 1.77247 246.566 1.75265L246.559 1.2527ZM234.41 1.48122L234.399 0.981353C233.049 1.0123 231.703 1.04503 230.36 1.07955L230.373 1.57938L230.385 2.07922C231.728 2.04473 233.073 2.01201 234.422 1.98109L234.41 1.48122ZM222.265 1.81047L222.25 1.31071C220.899 1.35304 219.551 1.39717 218.207 1.4431L218.224 1.94281L218.241 2.44251C219.584 2.39662 220.931 2.35252 222.281 2.31022L222.265 1.81047ZM210.125 2.24288L210.105 1.74328C208.753 1.79733 207.404 1.8532 206.059 1.91088L206.081 2.41042L206.102 2.90996C207.446 2.85232 208.794 2.79649 210.145 2.74248L210.125 2.24288ZM197.991 2.78152L197.966 2.28211C196.612 2.34828 195.263 2.41631 193.917 2.48616L193.943 2.98549L193.969 3.48482C195.313 3.41501 196.662 3.34704 198.015 3.28092L197.991 2.78152ZM185.861 3.43016L185.832 2.931C184.477 3.00979 183.127 3.09045 181.782 3.17297L181.813 3.67203L181.843 4.17109C183.187 4.08864 184.537 4.00804 185.89 3.92932L185.861 3.43016ZM173.738 4.19348L173.704 3.69462C172.349 3.7866 170.999 3.88048 169.654 3.97625L169.69 4.47498L169.725 4.97372C171.069 4.87803 172.418 4.78423 173.772 4.69233L173.738 4.19348ZM161.622 5.07718L161.583 4.5787C160.228 4.68454 158.879 4.79231 157.536 4.90202L157.577 5.40036L157.617 5.8987C158.959 5.78909 160.307 5.68141 161.661 5.57566L161.622 5.07718ZM149.514 6.08827L149.47 5.59024C148.117 5.71073 146.77 5.83321 145.429 5.95765L145.475 6.45551L145.522 6.95337C146.861 6.82904 148.206 6.70668 149.559 6.5863L149.514 6.08827ZM137.417 7.23529L137.367 6.73781C136.017 6.87389 134.673 7.01201 133.337 7.15213L133.39 7.6494L133.442 8.14667C134.776 8.00669 136.118 7.86872 137.467 7.73277L137.417 7.23529ZM125.335 8.52875L125.278 8.03194C123.933 8.18471 122.595 8.33956 121.266 8.49646L121.325 8.99302L121.384 9.48957C122.711 9.33284 124.047 9.17816 125.391 9.02556L125.335 8.52875ZM113.274 9.98154L113.211 9.48556C111.873 9.6563 110.544 9.82917 109.225 10.0042L109.29 10.4998L109.356 10.9955C110.674 10.8207 112.001 10.648 113.337 10.4775L113.274 9.98154ZM97.1864 11.6978C98.505 11.5012 99.8343 11.3068 101.174 11.1147L101.245 11.6096L101.316 12.1045C99.9781 12.2964 98.6506 12.4905 97.3339 12.6869L97.2602 12.1923L97.1864 11.6978ZM89.2662 13.4327L89.1866 12.9391C87.8306 13.1579 86.4872 13.3793 85.1566 13.603L85.2395 14.0961L85.3225 14.5891C86.6509 14.3658 87.9921 14.1448 89.3459 13.9263L89.2662 13.4327ZM73.1949 15.7445C74.5108 15.4937 75.8415 15.2453 77.187 14.9996L77.2768 15.4915L77.3667 15.9833C76.0237 16.2286 74.6954 16.4765 73.3821 16.7268L73.2885 16.2357L73.1949 15.7445ZM65.346 17.8183L65.244 17.3288C63.9185 17.6049 62.6102 17.8838 61.3195 18.1654L61.426 18.6539L61.5326 19.1424C62.8202 18.8615 64.1254 18.5833 65.448 18.3078L65.346 17.8183ZM53.5401 20.4602L53.4231 19.9741C52.0763 20.2982 50.7518 20.6255 49.4501 20.9558L49.5731 21.4405L49.6961 21.9251C50.9937 21.5958 52.3142 21.2695 53.6571 20.9463L53.5401 20.4602ZM41.767 23.5361L41.6303 23.0552C40.3076 23.4314 39.0134 23.811 37.748 24.1941L37.8929 24.6726L38.0378 25.1512C39.2975 24.7698 40.5863 24.3917 41.9038 24.0171L41.767 23.5361ZM30.1927 27.1715L30.028 26.6994C28.7287 27.1526 27.4685 27.61 26.2483 28.0714L26.4252 28.5391L26.602 29.0067C27.8137 28.5485 29.0657 28.0941 30.3574 27.6436L30.1927 27.1715ZM18.952 31.6469L18.7428 31.1927C17.4662 31.7806 16.2525 32.374 15.1032 32.9728L15.3343 33.4162L15.5653 33.8597C16.6989 33.269 17.8979 32.6827 19.1611 32.1011L18.952 31.6469ZM8.50555 37.5924L8.20909 37.1898C7.04248 38.0488 6.00522 38.9169 5.10122 39.7933L5.44925 40.1522L5.79728 40.5112C6.6642 39.6708 7.66601 38.8315 8.80202 37.9951L8.50555 37.5924ZM0.643555 48.5471C0.643555 47.8745 0.72098 47.2052 0.874323 46.5394L1.36157 46.6516L1.84881 46.7638C1.71198 47.3579 1.64355 47.952 1.64355 48.5471C1.64355 49.1391 1.71129 49.7301 1.84671 50.3212L1.35934 50.4329L0.87197 50.5445C0.720188 49.8821 0.643555 49.2162 0.643555 48.5471ZM5.44084 56.9338L5.09263 57.2926C5.99266 58.166 7.02503 59.0311 8.1859 59.8873L8.48267 59.4849L8.77944 59.0825C7.64912 58.2489 6.6521 57.4125 5.78905 56.575L5.44084 56.9338ZM15.2766 63.6479L15.0452 64.0911C16.1929 64.6904 17.4052 65.2844 18.6804 65.8727L18.8899 65.4187L19.0994 64.9647C17.8376 64.3826 16.6401 63.7958 15.5081 63.2047L15.2766 63.6479ZM26.2958 68.5061L26.1185 68.9736C27.3443 69.4385 28.6106 69.8994 29.9167 70.3559L30.0817 69.884L30.2467 69.412C28.9484 68.9581 27.6903 68.5003 26.4731 68.0386L26.2958 68.5061ZM37.7223 72.3698L37.577 72.8482C38.8381 73.2311 40.1282 73.6106 41.4466 73.9866L41.5837 73.5058L41.7208 73.025C40.4076 72.6505 39.123 72.2726 37.8675 71.8914L37.7223 72.3698ZM49.3612 75.5999L49.2378 76.0844C50.521 76.411 51.8264 76.7346 53.1536 77.0551L53.271 76.5691L53.3884 76.0831C52.065 75.7635 50.7636 75.4408 49.4845 75.1153L49.3612 75.5999ZM61.1243 78.3743L61.0174 78.8628C62.3151 79.1469 63.6306 79.4283 64.9637 79.7069L65.066 79.2175L65.1683 78.728C63.8382 78.4501 62.5258 78.1693 61.2312 77.8859L61.1243 78.3743ZM72.9776 80.7991L72.8836 81.2902C74.1914 81.5404 75.5141 81.788 76.8513 82.0331L76.9414 81.5413L77.0316 81.0495C75.6968 80.8049 74.3767 80.5577 73.0715 80.3081L72.9776 80.7991Z" fill="white"/>
</svg>
